<?xml version="1.0" standalone="no"?>
<!DOCTYPE svg PUBLIC "-//W3C//DTD SVG 20010904//EN"
 "http://www.w3.org/TR/2001/REC-SVG-20010904/DTD/svg10.dtd">
<svg version="1.0" xmlns="http://www.w3.org/2000/svg"
 width="2505.000000pt" height="2505.000000pt" viewBox="0 0 2505.000000 2505.000000"
 preserveAspectRatio="xMidYMid meet">
<metadata>
Created by potrace 1.14, written by Peter Selinger 2001-2017
</metadata>
<g transform="translate(0.000000,2505.000000) scale(0.100000,-0.100000)"
fill="#000000" stroke="none">
<path d="M12388 23775 c-1 -2 -66 -6 -143 -10 -77 -4 -158 -8 -180 -10 -22 -2
-91 -6 -152 -10 -62 -3 -123 -8 -135 -10 -13 -2 -59 -6 -103 -10 -44 -3 -87
-8 -95 -10 -8 -2 -42 -6 -75 -10 -33 -3 -73 -8 -90 -10 -16 -3 -46 -7 -65 -9
-102 -13 -150 -20 -310 -46 -248 -41 -242 -40 -275 -47 -16 -3 -37 -7 -45 -8
-32 -5 -90 -17 -225 -46 -77 -17 -151 -33 -165 -35 -14 -3 -95 -23 -180 -45
-85 -22 -166 -42 -179 -45 -14 -3 -28 -7 -33 -10 -4 -3 -17 -7 -28 -9 -32 -6
-173 -45 -190 -52 -18 -8 -15 -7 -70 -22 -295 -82 -836 -279 -1190 -434 -366
-160 -825 -388 -992 -494 -21 -12 -40 -23 -43 -23 -9 0 -230 -131 -394 -233
-204 -128 -570 -375 -666 -450 -5 -4 -53 -40 -105 -79 -109 -81 -213 -161
-220 -168 -3 -3 -50 -41 -105 -85 -55 -43 -111 -89 -125 -101 -14 -12 -61 -53
-105 -90 -44 -38 -85 -73 -91 -79 -6 -5 -44 -39 -85 -75 -261 -232 -686 -659
-895 -900 -21 -25 -41 -47 -44 -50 -22 -20 -272 -319 -310 -370 -14 -19 -32
-41 -40 -50 -35 -35 -316 -419 -438 -595 -129 -188 -302 -457 -378 -588 -21
-37 -50 -87 -64 -111 -31 -53 -146 -260 -190 -341 -44 -81 -210 -413 -250
-500 -102 -221 -126 -275 -167 -375 -19 -47 -43 -103 -53 -125 -10 -22 -21
-51 -25 -65 -4 -14 -16 -43 -26 -65 -100 -223 -339 -966 -425 -1324 -2 -9 -13
-54 -24 -101 -24 -101 -28 -116 -36 -155 -3 -16 -14 -66 -24 -110 -16 -73 -30
-141 -45 -220 -35 -185 -36 -195 -50 -285 -2 -14 -11 -65 -19 -115 -8 -49 -17
-112 -21 -140 -3 -27 -9 -64 -11 -81 -3 -17 -6 -46 -8 -65 -8 -76 -18 -155
-22 -179 -2 -14 -6 -54 -9 -90 -3 -36 -8 -81 -10 -100 -4 -36 -16 -184 -20
-255 -2 -22 -6 -85 -9 -140 -22 -342 -22 -877 0 -1235 3 -58 6 -116 5 -129 -1
-14 -46 -144 -100 -290 -156 -418 -266 -722 -361 -996 -23 -66 -52 -149 -65
-185 -62 -171 -392 -1184 -410 -1260 -2 -8 -15 -53 -28 -100 -102 -343 -177
-607 -246 -870 -46 -176 -113 -442 -117 -470 -3 -14 -7 -31 -9 -39 -5 -11 -90
-390 -101 -446 -72 -365 -130 -683 -149 -820 -3 -22 -8 -49 -10 -61 -3 -11 -7
-43 -10 -70 -3 -27 -8 -56 -10 -64 -2 -8 -7 -40 -10 -70 -3 -30 -7 -66 -10
-80 -5 -28 -11 -80 -20 -160 -3 -30 -8 -71 -10 -90 -15 -125 -22 -209 -40
-435 -24 -315 -24 -812 0 -1150 11 -153 17 -222 20 -235 2 -8 7 -42 10 -75 16
-157 71 -449 121 -645 121 -473 310 -888 567 -1245 44 -60 83 -112 86 -115 3
-3 26 -30 51 -60 118 -144 294 -317 452 -442 35 -27 70 -55 79 -62 8 -7 45
-33 81 -58 381 -267 688 -372 1088 -373 415 -1 760 123 1115 400 49 39 97 77
106 85 8 8 33 29 55 45 48 37 257 212 304 255 19 17 64 57 100 88 35 31 71 64
80 72 9 8 70 65 135 125 289 267 869 847 1115 1115 18 19 88 94 155 165 68 72
137 146 155 165 60 65 125 136 229 248 l103 112 87 -61 c97 -69 462 -312 531
-353 25 -15 79 -48 120 -73 567 -344 1162 -632 1810 -876 348 -131 986 -329
1163 -361 15 -2 30 -7 34 -9 13 -8 379 -90 493 -111 19 -3 46 -8 60 -11 13 -3
42 -7 64 -11 22 -3 43 -7 46 -9 3 -2 26 -6 50 -10 38 -5 150 -24 240 -40 14
-2 63 -9 110 -15 95 -13 135 -18 183 -24 17 -3 58 -8 90 -11 32 -4 66 -8 75
-10 9 -1 53 -6 97 -9 44 -4 98 -9 120 -11 22 -2 78 -7 125 -10 47 -3 110 -8
140 -10 351 -27 1091 -27 1455 0 22 1 81 6 130 9 50 4 108 9 130 11 22 2 76 7
120 11 44 3 82 7 85 9 3 2 39 6 80 10 41 3 82 8 90 10 8 2 40 7 70 10 54 6
100 12 149 20 13 2 45 7 70 10 25 4 82 13 126 21 44 7 96 16 115 19 19 3 80
14 135 25 55 10 116 22 135 25 30 5 57 11 140 30 8 2 49 11 90 20 41 8 129 29
195 46 66 17 128 32 138 34 47 10 292 80 477 136 36 11 72 22 80 24 8 2 15 4
15 4 0 1 92 32 205 70 354 119 751 278 1090 436 171 79 552 273 643 327 29 17
80 46 113 64 103 56 401 236 539 325 72 47 146 95 167 107 l36 22 22 -27 c18
-23 66 -75 247 -268 326 -350 514 -545 804 -834 176 -176 491 -481 545 -528
11 -10 58 -52 104 -93 46 -41 88 -79 94 -85 97 -87 297 -258 370 -315 10 -8
26 -22 35 -30 9 -8 32 -26 51 -40 19 -13 37 -27 40 -30 3 -3 42 -34 88 -69
136 -103 244 -165 417 -241 55 -24 173 -61 252 -79 162 -37 241 -46 403 -45
185 0 271 11 442 54 182 47 332 115 523 239 226 145 323 224 543 441 300 296
536 647 701 1045 23 55 46 109 51 120 25 57 135 405 146 465 3 14 11 50 19 80
14 53 19 80 30 138 3 15 10 47 15 72 14 67 31 170 45 275 3 28 8 61 10 75 6
39 14 109 20 190 3 41 8 89 10 105 8 67 18 361 18 535 0 188 -11 555 -18 588
-2 10 -6 67 -10 127 -4 61 -8 124 -10 140 -1 17 -6 62 -10 100 -3 39 -8 81
-10 95 -4 31 -13 109 -20 175 -6 60 -14 121 -20 155 -2 14 -7 50 -10 80 -3 30
-8 62 -10 70 -2 8 -7 35 -10 60 -7 50 -62 384 -69 415 -2 11 -11 61 -20 110
-18 98 -35 181 -91 435 -20 91 -39 176 -41 190 -3 14 -9 39 -14 55 -5 17 -12
46 -15 65 -5 26 -123 509 -150 610 -26 97 -62 227 -105 380 -29 102 -61 214
-71 250 -10 36 -27 97 -39 135 -12 39 -25 84 -30 100 -15 56 -117 382 -188
605 -72 223 -228 689 -326 969 l-96 273 10 82 c6 44 12 92 14 106 3 14 7 48
10 75 4 28 8 61 11 75 2 14 7 56 10 93 4 37 8 77 10 88 2 11 7 52 10 92 3 39
8 90 10 112 43 411 54 1278 20 1675 -2 25 -6 83 -10 130 -3 47 -8 103 -10 125
-12 147 -17 193 -20 215 -4 24 -10 77 -21 185 -3 28 -7 57 -9 65 -2 8 -7 36
-10 62 -8 72 -31 231 -41 288 -3 14 -13 75 -24 135 -109 622 -288 1282 -501
1852 -27 72 -49 134 -49 137 0 4 -9 25 -19 49 -11 23 -42 98 -69 167 -63 156
-121 290 -209 480 -57 123 -243 491 -303 600 -26 47 -57 103 -70 125 -18 34
-166 288 -203 350 -7 11 -24 39 -39 62 -16 23 -28 46 -28 51 0 5 -9 17 -20 27
-11 10 -20 21 -20 25 0 8 -137 221 -167 260 -11 14 -50 70 -88 125 -68 100
-370 508 -396 535 -8 8 -48 58 -89 110 -41 52 -95 118 -120 146 -62 70 -150
171 -173 197 -207 243 -695 734 -902 908 -22 19 -60 53 -85 75 -25 23 -76 68
-115 100 -38 32 -72 61 -75 65 -5 5 -240 193 -380 302 -187 146 -567 410 -820
569 -157 99 -445 268 -456 268 -4 0 -28 13 -53 29 -107 68 -545 290 -771 391
-52 23 -114 51 -137 61 -105 47 -137 60 -278 117 -287 115 -756 280 -945 333
-25 7 -49 14 -55 15 -5 2 -35 10 -65 19 -313 93 -816 210 -1120 260 -19 3 -46
7 -60 10 -14 3 -40 7 -57 10 -18 3 -48 8 -65 11 -18 3 -46 7 -63 10 -16 2 -48
6 -70 9 -74 12 -90 14 -135 19 -25 3 -61 8 -80 10 -19 3 -60 8 -90 11 -30 3
-62 8 -70 10 -8 2 -51 6 -95 10 -44 3 -96 8 -115 10 -19 2 -75 7 -123 10 -87
5 -189 12 -317 22 -80 5 -947 13 -952 8z"/>
</g>
</svg>
